<svg width="1600" height="1200" viewBox="0 0 1600 1200" fill="none" xmlns="http://www.w3.org/2000/svg">
  <rect width="1600" height="1200" rx="48" fill="#F8F4EF"/>
  <rect x="70" y="70" width="1460" height="1060" rx="40" fill="url(#paint0_linear)"/>
  <rect x="120" y="140" width="520" height="860" rx="28" fill="#FFFFFF" fill-opacity="0.72"/>
  <rect x="686" y="140" width="794" height="420" rx="28" fill="#FFFFFF" fill-opacity="0.52"/>
  <rect x="686" y="604" width="376" height="396" rx="28" fill="#111111"/>
  <rect x="1104" y="604" width="376" height="396" rx="28" fill="#FFFFFF" fill-opacity="0.65"/>
  <rect x="172" y="206" width="416" height="120" rx="20" fill="#111111"/>
  <rect x="172" y="352" width="294" height="24" rx="12" fill="#E6DED6"/>
  <rect x="172" y="396" width="340" height="24" rx="12" fill="#E6DED6"/>
  <rect x="172" y="470" width="182" height="246" rx="18" fill="#F36D20"/>
  <rect x="378" y="470" width="182" height="246" rx="18" fill="#DAD2C7"/>
  <rect x="172" y="752" width="388" height="192" rx="24" fill="#F8F4EF"/>
  <circle cx="860" cy="770" r="118" fill="#F36D20"/>
  <rect x="763" y="255" width="640" height="42" rx="21" fill="#F36D20" fill-opacity="0.88"/>
  <rect x="763" y="319" width="512" height="24" rx="12" fill="#E8E1D8"/>
  <rect x="763" y="363" width="396" height="24" rx="12" fill="#E8E1D8"/>
  <path d="M764 952C845.333 843.333 926.667 843.333 1008 952" stroke="#FFFFFF" stroke-width="38" stroke-linecap="round"/>
  <rect x="1150" y="666" width="132" height="272" rx="66" fill="#F36D20"/>
  <rect x="1308" y="666" width="92" height="272" rx="46" fill="#111111"/>
  <defs>
    <linearGradient id="paint0_linear" x1="120" y1="140" x2="1480" y2="1130" gradientUnits="userSpaceOnUse">
      <stop stop-color="#FFF8F1"/>
      <stop offset="1" stop-color="#F2ECE5"/>
    </linearGradient>
  </defs>
</svg>
